<mxfile host="app.diagrams.net" modified="2023-10-20T03:43:22.175Z" agent="Mozilla/5.0 (Macintosh; Intel Mac OS X 10_15_7) AppleWebKit/605.1.15 (KHTML, like Gecko) Version/16.0 Safari/605.1.15" etag="hSfVvyMNyd8lL223QFoa" version="22.0.4" type="github" pages="5">
  <diagram name="Page-1" id="k5lDUI6TXCVM2oPatagf">
    <mxGraphModel dx="555" dy="290" grid="1" gridSize="10" guides="1" tooltips="1" connect="1" arrows="1" fold="1" page="1" pageScale="1" pageWidth="850" pageHeight="1100" math="0" shadow="0">
      <root>
        <mxCell id="0" />
        <mxCell id="1" parent="0" />
        <mxCell id="24MV_TnsjJ3cPllh7c4K-1" value="" style="endArrow=none;html=1;rounded=0;" edge="1" parent="1">
          <mxGeometry width="50" height="50" relative="1" as="geometry">
            <mxPoint x="150" y="275" as="sourcePoint" />
            <mxPoint x="230" y="275" as="targetPoint" />
          </mxGeometry>
        </mxCell>
        <mxCell id="24MV_TnsjJ3cPllh7c4K-3" value="" style="verticalLabelPosition=bottom;shadow=0;dashed=0;align=center;html=1;verticalAlign=top;shape=mxgraph.electrical.logic_gates.logic_gate;operation=and;negating=1;negSize=0.15;" vertex="1" parent="1">
          <mxGeometry x="230" y="260" width="100" height="60" as="geometry" />
        </mxCell>
        <mxCell id="24MV_TnsjJ3cPllh7c4K-4" value="" style="endArrow=none;html=1;rounded=0;entryX=0;entryY=0.75;entryDx=0;entryDy=0;entryPerimeter=0;" edge="1" parent="1" target="24MV_TnsjJ3cPllh7c4K-3">
          <mxGeometry width="50" height="50" relative="1" as="geometry">
            <mxPoint x="201" y="275" as="sourcePoint" />
            <mxPoint x="345" y="268" as="targetPoint" />
            <Array as="points">
              <mxPoint x="201" y="305" />
            </Array>
          </mxGeometry>
        </mxCell>
        <mxCell id="24MV_TnsjJ3cPllh7c4K-5" value="" style="endArrow=none;html=1;rounded=0;exitX=1;exitY=0.5;exitDx=0;exitDy=0;exitPerimeter=0;" edge="1" parent="1" source="24MV_TnsjJ3cPllh7c4K-3">
          <mxGeometry width="50" height="50" relative="1" as="geometry">
            <mxPoint x="287" y="299" as="sourcePoint" />
            <mxPoint x="350" y="290" as="targetPoint" />
          </mxGeometry>
        </mxCell>
        <mxCell id="24MV_TnsjJ3cPllh7c4K-6" value="Inverter" style="text;html=1;strokeColor=none;fillColor=none;align=center;verticalAlign=middle;whiteSpace=wrap;rounded=0;" vertex="1" parent="1">
          <mxGeometry x="226" y="322" width="60" height="30" as="geometry" />
        </mxCell>
        <mxCell id="24MV_TnsjJ3cPllh7c4K-7" value="" style="verticalLabelPosition=bottom;shadow=0;dashed=0;align=center;html=1;verticalAlign=top;shape=mxgraph.electrical.logic_gates.logic_gate;operation=and;negating=1;negSize=0.15;" vertex="1" parent="1">
          <mxGeometry x="161.5" y="367" width="100" height="60" as="geometry" />
        </mxCell>
        <mxCell id="24MV_TnsjJ3cPllh7c4K-8" value="" style="verticalLabelPosition=bottom;shadow=0;dashed=0;align=center;html=1;verticalAlign=top;shape=mxgraph.electrical.logic_gates.inverter_2" vertex="1" parent="1">
          <mxGeometry x="250.5" y="367" width="100" height="60" as="geometry" />
        </mxCell>
        <mxCell id="24MV_TnsjJ3cPllh7c4K-9" value="AND" style="text;html=1;strokeColor=none;fillColor=none;align=center;verticalAlign=middle;whiteSpace=wrap;rounded=0;" vertex="1" parent="1">
          <mxGeometry x="231.5" y="435" width="60" height="30" as="geometry" />
        </mxCell>
        <mxCell id="24MV_TnsjJ3cPllh7c4K-10" value="" style="shape=or;whiteSpace=wrap;html=1;" vertex="1" parent="1">
          <mxGeometry x="436" y="295" width="60" height="80" as="geometry" />
        </mxCell>
        <mxCell id="24MV_TnsjJ3cPllh7c4K-11" value="" style="ellipse;whiteSpace=wrap;html=1;aspect=fixed;" vertex="1" parent="1">
          <mxGeometry x="428" y="313" width="8" height="8" as="geometry" />
        </mxCell>
        <mxCell id="24MV_TnsjJ3cPllh7c4K-12" value="" style="ellipse;whiteSpace=wrap;html=1;aspect=fixed;" vertex="1" parent="1">
          <mxGeometry x="428" y="347" width="8" height="8" as="geometry" />
        </mxCell>
        <mxCell id="24MV_TnsjJ3cPllh7c4K-13" value="" style="endArrow=none;html=1;rounded=0;entryX=0;entryY=0.5;entryDx=0;entryDy=0;" edge="1" parent="1" target="24MV_TnsjJ3cPllh7c4K-11">
          <mxGeometry width="50" height="50" relative="1" as="geometry">
            <mxPoint x="400" y="317" as="sourcePoint" />
            <mxPoint x="520" y="270" as="targetPoint" />
          </mxGeometry>
        </mxCell>
        <mxCell id="24MV_TnsjJ3cPllh7c4K-14" value="" style="endArrow=none;html=1;rounded=0;entryX=0;entryY=0.5;entryDx=0;entryDy=0;" edge="1" parent="1">
          <mxGeometry width="50" height="50" relative="1" as="geometry">
            <mxPoint x="400" y="350.84" as="sourcePoint" />
            <mxPoint x="428" y="350.84" as="targetPoint" />
          </mxGeometry>
        </mxCell>
        <mxCell id="24MV_TnsjJ3cPllh7c4K-15" value="" style="ellipse;whiteSpace=wrap;html=1;aspect=fixed;" vertex="1" parent="1">
          <mxGeometry x="496" y="331" width="8" height="8" as="geometry" />
        </mxCell>
        <mxCell id="24MV_TnsjJ3cPllh7c4K-16" value="" style="endArrow=none;html=1;rounded=0;entryX=0;entryY=0.5;entryDx=0;entryDy=0;" edge="1" parent="1">
          <mxGeometry width="50" height="50" relative="1" as="geometry">
            <mxPoint x="504" y="334.84" as="sourcePoint" />
            <mxPoint x="532" y="334.84" as="targetPoint" />
          </mxGeometry>
        </mxCell>
        <mxCell id="24MV_TnsjJ3cPllh7c4K-17" value="OR" style="text;html=1;strokeColor=none;fillColor=none;align=center;verticalAlign=middle;whiteSpace=wrap;rounded=0;" vertex="1" parent="1">
          <mxGeometry x="436" y="392" width="60" height="30" as="geometry" />
        </mxCell>
      </root>
    </mxGraphModel>
  </diagram>
  <diagram id="7QFr8qtaEx9gnNpRar_B" name="Page-2">
    <mxGraphModel dx="569" dy="297" grid="0" gridSize="10" guides="1" tooltips="1" connect="1" arrows="1" fold="1" page="1" pageScale="1" pageWidth="850" pageHeight="1100" math="1" shadow="0">
      <root>
        <mxCell id="0" />
        <mxCell id="1" parent="0" />
        <mxCell id="NpEV5KOSoTBuI4CAFxKH-1" value="" style="endArrow=none;html=1;rounded=0;" edge="1" parent="1">
          <mxGeometry width="50" height="50" relative="1" as="geometry">
            <mxPoint x="280" y="182" as="sourcePoint" />
            <mxPoint x="300" y="182" as="targetPoint" />
          </mxGeometry>
        </mxCell>
        <mxCell id="NpEV5KOSoTBuI4CAFxKH-2" value="" style="endArrow=none;html=1;rounded=0;" edge="1" parent="1">
          <mxGeometry width="50" height="50" relative="1" as="geometry">
            <mxPoint x="280" y="202" as="sourcePoint" />
            <mxPoint x="300" y="202" as="targetPoint" />
          </mxGeometry>
        </mxCell>
        <mxCell id="NpEV5KOSoTBuI4CAFxKH-3" value="" style="endArrow=none;html=1;rounded=0;" edge="1" parent="1">
          <mxGeometry width="50" height="50" relative="1" as="geometry">
            <mxPoint x="280" y="222" as="sourcePoint" />
            <mxPoint x="300" y="222" as="targetPoint" />
          </mxGeometry>
        </mxCell>
        <mxCell id="NpEV5KOSoTBuI4CAFxKH-4" value="" style="endArrow=none;html=1;rounded=0;" edge="1" parent="1">
          <mxGeometry width="50" height="50" relative="1" as="geometry">
            <mxPoint x="280" y="242" as="sourcePoint" />
            <mxPoint x="300" y="242" as="targetPoint" />
          </mxGeometry>
        </mxCell>
        <mxCell id="NpEV5KOSoTBuI4CAFxKH-5" value="" style="endArrow=none;html=1;rounded=0;" edge="1" parent="1">
          <mxGeometry width="50" height="50" relative="1" as="geometry">
            <mxPoint x="280" y="262" as="sourcePoint" />
            <mxPoint x="300" y="262" as="targetPoint" />
          </mxGeometry>
        </mxCell>
        <mxCell id="NpEV5KOSoTBuI4CAFxKH-6" value="" style="endArrow=none;html=1;rounded=0;" edge="1" parent="1">
          <mxGeometry width="50" height="50" relative="1" as="geometry">
            <mxPoint x="280" y="282" as="sourcePoint" />
            <mxPoint x="300" y="282" as="targetPoint" />
          </mxGeometry>
        </mxCell>
        <mxCell id="NpEV5KOSoTBuI4CAFxKH-7" value="" style="endArrow=none;html=1;rounded=0;" edge="1" parent="1">
          <mxGeometry width="50" height="50" relative="1" as="geometry">
            <mxPoint x="280" y="302" as="sourcePoint" />
            <mxPoint x="300" y="302" as="targetPoint" />
          </mxGeometry>
        </mxCell>
        <mxCell id="NpEV5KOSoTBuI4CAFxKH-8" value="" style="endArrow=none;html=1;rounded=0;" edge="1" parent="1">
          <mxGeometry width="50" height="50" relative="1" as="geometry">
            <mxPoint x="280" y="320.95" as="sourcePoint" />
            <mxPoint x="300" y="320.95" as="targetPoint" />
          </mxGeometry>
        </mxCell>
        <mxCell id="NpEV5KOSoTBuI4CAFxKH-9" value="" style="rounded=0;whiteSpace=wrap;html=1;" vertex="1" parent="1">
          <mxGeometry x="200" y="160" width="80" height="184" as="geometry" />
        </mxCell>
        <mxCell id="NpEV5KOSoTBuI4CAFxKH-10" value="0 &amp;nbsp;0 &amp;nbsp;0" style="text;html=1;strokeColor=none;fillColor=none;align=center;verticalAlign=middle;whiteSpace=wrap;rounded=0;fontSize=10;" vertex="1" parent="1">
          <mxGeometry x="229" y="166" width="60" height="30" as="geometry" />
        </mxCell>
        <mxCell id="NpEV5KOSoTBuI4CAFxKH-11" value="0 &amp;nbsp;0 &amp;nbsp;1" style="text;html=1;strokeColor=none;fillColor=none;align=center;verticalAlign=middle;whiteSpace=wrap;rounded=0;fontSize=10;" vertex="1" parent="1">
          <mxGeometry x="229" y="186" width="60" height="30" as="geometry" />
        </mxCell>
        <mxCell id="NpEV5KOSoTBuI4CAFxKH-12" value="0 &amp;nbsp;1 &amp;nbsp;0" style="text;html=1;strokeColor=none;fillColor=none;align=center;verticalAlign=middle;whiteSpace=wrap;rounded=0;fontSize=10;" vertex="1" parent="1">
          <mxGeometry x="229" y="206" width="60" height="30" as="geometry" />
        </mxCell>
        <mxCell id="NpEV5KOSoTBuI4CAFxKH-13" value="0 &amp;nbsp;1 &amp;nbsp;1" style="text;html=1;strokeColor=none;fillColor=none;align=center;verticalAlign=middle;whiteSpace=wrap;rounded=0;fontSize=10;" vertex="1" parent="1">
          <mxGeometry x="229" y="226" width="60" height="30" as="geometry" />
        </mxCell>
        <mxCell id="NpEV5KOSoTBuI4CAFxKH-14" value="1 &amp;nbsp;0 &amp;nbsp;0" style="text;html=1;strokeColor=none;fillColor=none;align=center;verticalAlign=middle;whiteSpace=wrap;rounded=0;fontSize=10;" vertex="1" parent="1">
          <mxGeometry x="229" y="246" width="60" height="30" as="geometry" />
        </mxCell>
        <mxCell id="NpEV5KOSoTBuI4CAFxKH-15" value="1 &amp;nbsp;0 &amp;nbsp;1" style="text;html=1;strokeColor=none;fillColor=none;align=center;verticalAlign=middle;whiteSpace=wrap;rounded=0;fontSize=10;" vertex="1" parent="1">
          <mxGeometry x="229" y="267" width="60" height="30" as="geometry" />
        </mxCell>
        <mxCell id="NpEV5KOSoTBuI4CAFxKH-16" value="1 &amp;nbsp;1 &amp;nbsp;0" style="text;html=1;strokeColor=none;fillColor=none;align=center;verticalAlign=middle;whiteSpace=wrap;rounded=0;fontSize=10;" vertex="1" parent="1">
          <mxGeometry x="229" y="286" width="60" height="30" as="geometry" />
        </mxCell>
        <mxCell id="NpEV5KOSoTBuI4CAFxKH-17" value="1 &amp;nbsp;1 &amp;nbsp;1" style="text;html=1;strokeColor=none;fillColor=none;align=center;verticalAlign=middle;whiteSpace=wrap;rounded=0;fontSize=10;" vertex="1" parent="1">
          <mxGeometry x="229" y="306" width="60" height="30" as="geometry" />
        </mxCell>
        <mxCell id="NpEV5KOSoTBuI4CAFxKH-18" value="&lt;font style=&quot;font-size: 9px;&quot;&gt;$$A_i\ B_i\ C_i$$&lt;/font&gt;" style="text;html=1;strokeColor=none;fillColor=none;align=center;verticalAlign=middle;whiteSpace=wrap;rounded=0;fontSize=10;" vertex="1" parent="1">
          <mxGeometry x="229" y="151" width="60" height="30" as="geometry" />
        </mxCell>
        <mxCell id="NpEV5KOSoTBuI4CAFxKH-21" value="" style="endArrow=none;html=1;rounded=0;entryX=0.004;entryY=0.217;entryDx=0;entryDy=0;entryPerimeter=0;" edge="1" parent="1">
          <mxGeometry width="50" height="50" relative="1" as="geometry">
            <mxPoint x="169.68" y="203.84" as="sourcePoint" />
            <mxPoint x="200.00000000000006" y="203.76800000000006" as="targetPoint" />
          </mxGeometry>
        </mxCell>
        <mxCell id="NpEV5KOSoTBuI4CAFxKH-22" value="" style="endArrow=none;html=1;rounded=0;entryX=0.004;entryY=0.217;entryDx=0;entryDy=0;entryPerimeter=0;" edge="1" parent="1">
          <mxGeometry width="50" height="50" relative="1" as="geometry">
            <mxPoint x="169.68" y="244.67" as="sourcePoint" />
            <mxPoint x="199.68" y="244.67" as="targetPoint" />
          </mxGeometry>
        </mxCell>
        <mxCell id="NpEV5KOSoTBuI4CAFxKH-23" value="" style="endArrow=none;html=1;rounded=0;entryX=0.004;entryY=0.217;entryDx=0;entryDy=0;entryPerimeter=0;" edge="1" parent="1">
          <mxGeometry width="50" height="50" relative="1" as="geometry">
            <mxPoint x="169.68" y="285.66999999999996" as="sourcePoint" />
            <mxPoint x="199.68" y="285.66999999999996" as="targetPoint" />
          </mxGeometry>
        </mxCell>
        <mxCell id="NpEV5KOSoTBuI4CAFxKH-24" value="$$A_i$$" style="text;html=1;strokeColor=none;fillColor=none;align=center;verticalAlign=middle;whiteSpace=wrap;rounded=0;" vertex="1" parent="1">
          <mxGeometry x="126" y="186" width="60" height="30" as="geometry" />
        </mxCell>
        <mxCell id="NpEV5KOSoTBuI4CAFxKH-25" value="$$B_i$$" style="text;html=1;strokeColor=none;fillColor=none;align=center;verticalAlign=middle;whiteSpace=wrap;rounded=0;" vertex="1" parent="1">
          <mxGeometry x="126" y="226" width="60" height="30" as="geometry" />
        </mxCell>
        <mxCell id="NpEV5KOSoTBuI4CAFxKH-26" value="$$C_i$$" style="text;html=1;strokeColor=none;fillColor=none;align=center;verticalAlign=middle;whiteSpace=wrap;rounded=0;" vertex="1" parent="1">
          <mxGeometry x="126" y="269" width="60" height="30" as="geometry" />
        </mxCell>
        <mxCell id="NpEV5KOSoTBuI4CAFxKH-27" value="" style="shape=xor;whiteSpace=wrap;html=1;" vertex="1" parent="1">
          <mxGeometry x="416" y="149" width="60" height="80" as="geometry" />
        </mxCell>
        <mxCell id="NpEV5KOSoTBuI4CAFxKH-28" value="" style="endArrow=none;html=1;rounded=0;" edge="1" parent="1">
          <mxGeometry width="50" height="50" relative="1" as="geometry">
            <mxPoint x="403" y="159" as="sourcePoint" />
            <mxPoint x="422" y="159" as="targetPoint" />
          </mxGeometry>
        </mxCell>
        <mxCell id="NpEV5KOSoTBuI4CAFxKH-29" value="" style="endArrow=none;html=1;rounded=0;" edge="1" parent="1">
          <mxGeometry width="50" height="50" relative="1" as="geometry">
            <mxPoint x="403" y="170" as="sourcePoint" />
            <mxPoint x="428" y="170" as="targetPoint" />
          </mxGeometry>
        </mxCell>
        <mxCell id="NpEV5KOSoTBuI4CAFxKH-30" value="" style="endArrow=none;html=1;rounded=0;" edge="1" parent="1">
          <mxGeometry width="50" height="50" relative="1" as="geometry">
            <mxPoint x="403" y="181" as="sourcePoint" />
            <mxPoint x="430" y="181" as="targetPoint" />
          </mxGeometry>
        </mxCell>
        <mxCell id="NpEV5KOSoTBuI4CAFxKH-31" value="" style="endArrow=none;html=1;rounded=0;" edge="1" parent="1">
          <mxGeometry width="50" height="50" relative="1" as="geometry">
            <mxPoint x="403" y="194" as="sourcePoint" />
            <mxPoint x="431" y="193.67" as="targetPoint" />
          </mxGeometry>
        </mxCell>
        <mxCell id="NpEV5KOSoTBuI4CAFxKH-32" value="" style="endArrow=none;html=1;rounded=0;" edge="1" parent="1">
          <mxGeometry width="50" height="50" relative="1" as="geometry">
            <mxPoint x="412" y="220" as="sourcePoint" />
            <mxPoint x="422" y="220" as="targetPoint" />
          </mxGeometry>
        </mxCell>
        <mxCell id="NpEV5KOSoTBuI4CAFxKH-33" value="" style="endArrow=none;html=1;rounded=0;" edge="1" parent="1">
          <mxGeometry width="50" height="50" relative="1" as="geometry">
            <mxPoint x="411" y="209" as="sourcePoint" />
            <mxPoint x="427" y="208.82999999999998" as="targetPoint" />
          </mxGeometry>
        </mxCell>
        <mxCell id="NpEV5KOSoTBuI4CAFxKH-34" value="" style="endArrow=none;html=1;rounded=0;" edge="1" parent="1">
          <mxGeometry width="50" height="50" relative="1" as="geometry">
            <mxPoint x="476" y="189.16" as="sourcePoint" />
            <mxPoint x="503" y="189" as="targetPoint" />
          </mxGeometry>
        </mxCell>
        <mxCell id="NpEV5KOSoTBuI4CAFxKH-35" value="" style="shape=xor;whiteSpace=wrap;html=1;" vertex="1" parent="1">
          <mxGeometry x="417" y="269" width="60" height="80" as="geometry" />
        </mxCell>
        <mxCell id="NpEV5KOSoTBuI4CAFxKH-36" value="" style="endArrow=none;html=1;rounded=0;" edge="1" parent="1">
          <mxGeometry width="50" height="50" relative="1" as="geometry">
            <mxPoint x="404" y="279" as="sourcePoint" />
            <mxPoint x="423" y="279" as="targetPoint" />
          </mxGeometry>
        </mxCell>
        <mxCell id="NpEV5KOSoTBuI4CAFxKH-37" value="" style="endArrow=none;html=1;rounded=0;" edge="1" parent="1">
          <mxGeometry width="50" height="50" relative="1" as="geometry">
            <mxPoint x="404" y="290" as="sourcePoint" />
            <mxPoint x="429" y="290" as="targetPoint" />
          </mxGeometry>
        </mxCell>
        <mxCell id="NpEV5KOSoTBuI4CAFxKH-38" value="" style="endArrow=none;html=1;rounded=0;" edge="1" parent="1">
          <mxGeometry width="50" height="50" relative="1" as="geometry">
            <mxPoint x="404" y="301" as="sourcePoint" />
            <mxPoint x="431" y="301" as="targetPoint" />
          </mxGeometry>
        </mxCell>
        <mxCell id="NpEV5KOSoTBuI4CAFxKH-39" value="" style="endArrow=none;html=1;rounded=0;" edge="1" parent="1">
          <mxGeometry width="50" height="50" relative="1" as="geometry">
            <mxPoint x="414" y="314" as="sourcePoint" />
            <mxPoint x="432" y="313.66999999999996" as="targetPoint" />
          </mxGeometry>
        </mxCell>
        <mxCell id="NpEV5KOSoTBuI4CAFxKH-40" value="" style="endArrow=none;html=1;rounded=0;" edge="1" parent="1">
          <mxGeometry width="50" height="50" relative="1" as="geometry">
            <mxPoint x="404" y="340" as="sourcePoint" />
            <mxPoint x="423" y="340" as="targetPoint" />
          </mxGeometry>
        </mxCell>
        <mxCell id="NpEV5KOSoTBuI4CAFxKH-41" value="" style="endArrow=none;html=1;rounded=0;" edge="1" parent="1">
          <mxGeometry width="50" height="50" relative="1" as="geometry">
            <mxPoint x="414" y="329" as="sourcePoint" />
            <mxPoint x="428" y="328.83" as="targetPoint" />
          </mxGeometry>
        </mxCell>
        <mxCell id="NpEV5KOSoTBuI4CAFxKH-42" value="" style="endArrow=none;html=1;rounded=0;" edge="1" parent="1">
          <mxGeometry width="50" height="50" relative="1" as="geometry">
            <mxPoint x="477" y="309.15999999999997" as="sourcePoint" />
            <mxPoint x="504" y="309" as="targetPoint" />
          </mxGeometry>
        </mxCell>
        <mxCell id="NpEV5KOSoTBuI4CAFxKH-43" value="$$S_i$$" style="text;html=1;strokeColor=none;fillColor=none;align=center;verticalAlign=middle;whiteSpace=wrap;rounded=0;" vertex="1" parent="1">
          <mxGeometry x="491" y="174" width="60" height="30" as="geometry" />
        </mxCell>
        <mxCell id="NpEV5KOSoTBuI4CAFxKH-44" value="$$C_{i+1}$$" style="text;html=1;strokeColor=none;fillColor=none;align=center;verticalAlign=middle;whiteSpace=wrap;rounded=0;" vertex="1" parent="1">
          <mxGeometry x="495" y="295" width="60" height="30" as="geometry" />
        </mxCell>
        <mxCell id="NpEV5KOSoTBuI4CAFxKH-45" value="" style="endArrow=none;html=1;rounded=0;" edge="1" parent="1">
          <mxGeometry width="50" height="50" relative="1" as="geometry">
            <mxPoint x="300" y="202" as="sourcePoint" />
            <mxPoint x="404" y="159" as="targetPoint" />
            <Array as="points">
              <mxPoint x="325" y="202" />
              <mxPoint x="325" y="159" />
            </Array>
          </mxGeometry>
        </mxCell>
        <mxCell id="NpEV5KOSoTBuI4CAFxKH-46" value="" style="endArrow=none;html=1;rounded=0;" edge="1" parent="1">
          <mxGeometry width="50" height="50" relative="1" as="geometry">
            <mxPoint x="300" y="222" as="sourcePoint" />
            <mxPoint x="403" y="170" as="targetPoint" />
            <Array as="points">
              <mxPoint x="341" y="222" />
              <mxPoint x="341" y="170" />
            </Array>
          </mxGeometry>
        </mxCell>
        <mxCell id="NpEV5KOSoTBuI4CAFxKH-47" value="" style="endArrow=none;html=1;rounded=0;" edge="1" parent="1">
          <mxGeometry width="50" height="50" relative="1" as="geometry">
            <mxPoint x="300" y="242" as="sourcePoint" />
            <mxPoint x="404" y="279" as="targetPoint" />
            <Array as="points">
              <mxPoint x="374" y="242" />
              <mxPoint x="374" y="279" />
            </Array>
          </mxGeometry>
        </mxCell>
        <mxCell id="NpEV5KOSoTBuI4CAFxKH-48" value="" style="endArrow=none;html=1;rounded=0;" edge="1" parent="1">
          <mxGeometry width="50" height="50" relative="1" as="geometry">
            <mxPoint x="300" y="262" as="sourcePoint" />
            <mxPoint x="405" y="181" as="targetPoint" />
            <Array as="points">
              <mxPoint x="353" y="262" />
              <mxPoint x="352" y="181" />
            </Array>
          </mxGeometry>
        </mxCell>
        <mxCell id="NpEV5KOSoTBuI4CAFxKH-49" value="" style="endArrow=none;html=1;rounded=0;" edge="1" parent="1">
          <mxGeometry width="50" height="50" relative="1" as="geometry">
            <mxPoint x="299" y="282" as="sourcePoint" />
            <mxPoint x="404" y="290" as="targetPoint" />
            <Array as="points">
              <mxPoint x="349" y="282" />
              <mxPoint x="349" y="290" />
            </Array>
          </mxGeometry>
        </mxCell>
        <mxCell id="NpEV5KOSoTBuI4CAFxKH-51" value="" style="endArrow=none;html=1;rounded=0;" edge="1" parent="1">
          <mxGeometry width="50" height="50" relative="1" as="geometry">
            <mxPoint x="299" y="302" as="sourcePoint" />
            <mxPoint x="404" y="301" as="targetPoint" />
          </mxGeometry>
        </mxCell>
        <mxCell id="NpEV5KOSoTBuI4CAFxKH-52" value="" style="endArrow=none;html=1;rounded=0;" edge="1" parent="1" source="NpEV5KOSoTBuI4CAFxKH-55">
          <mxGeometry width="50" height="50" relative="1" as="geometry">
            <mxPoint x="300" y="322" as="sourcePoint" />
            <mxPoint x="404" y="194" as="targetPoint" />
            <Array as="points">
              <mxPoint x="376" y="321" />
              <mxPoint x="391" y="321" />
              <mxPoint x="390" y="194" />
            </Array>
          </mxGeometry>
        </mxCell>
        <mxCell id="NpEV5KOSoTBuI4CAFxKH-53" value="" style="endArrow=none;html=1;rounded=0;" edge="1" parent="1">
          <mxGeometry width="50" height="50" relative="1" as="geometry">
            <mxPoint x="350" y="322" as="sourcePoint" />
            <mxPoint x="405" y="340" as="targetPoint" />
            <Array as="points">
              <mxPoint x="350" y="340" />
            </Array>
          </mxGeometry>
        </mxCell>
        <mxCell id="NpEV5KOSoTBuI4CAFxKH-57" value="" style="endArrow=none;html=1;rounded=0;" edge="1" parent="1" target="NpEV5KOSoTBuI4CAFxKH-55">
          <mxGeometry width="50" height="50" relative="1" as="geometry">
            <mxPoint x="300" y="321" as="sourcePoint" />
            <mxPoint x="404" y="194" as="targetPoint" />
            <Array as="points" />
          </mxGeometry>
        </mxCell>
        <mxCell id="NpEV5KOSoTBuI4CAFxKH-55" value="" style="shape=ellipse;html=1;dashed=0;whiteSpace=wrap;aspect=fixed;strokeWidth=5;perimeter=ellipsePerimeter;" vertex="1" parent="1">
          <mxGeometry x="349" y="320.5" width="1" height="1" as="geometry" />
        </mxCell>
        <mxCell id="NpEV5KOSoTBuI4CAFxKH-58" value="0" style="text;html=1;strokeColor=none;fillColor=none;align=center;verticalAlign=middle;whiteSpace=wrap;rounded=0;" vertex="1" parent="1">
          <mxGeometry x="376" y="299" width="60" height="30" as="geometry" />
        </mxCell>
        <mxCell id="NpEV5KOSoTBuI4CAFxKH-59" value="0" style="text;html=1;strokeColor=none;fillColor=none;align=center;verticalAlign=middle;whiteSpace=wrap;rounded=0;" vertex="1" parent="1">
          <mxGeometry x="376" y="314" width="60" height="30" as="geometry" />
        </mxCell>
        <mxCell id="NpEV5KOSoTBuI4CAFxKH-60" value="0" style="text;html=1;strokeColor=none;fillColor=none;align=center;verticalAlign=middle;whiteSpace=wrap;rounded=0;" vertex="1" parent="1">
          <mxGeometry x="373" y="194" width="60" height="30" as="geometry" />
        </mxCell>
        <mxCell id="NpEV5KOSoTBuI4CAFxKH-61" value="0" style="text;html=1;strokeColor=none;fillColor=none;align=center;verticalAlign=middle;whiteSpace=wrap;rounded=0;" vertex="1" parent="1">
          <mxGeometry x="373" y="206" width="60" height="30" as="geometry" />
        </mxCell>
      </root>
    </mxGraphModel>
  </diagram>
  <diagram id="l_U0f-6fF5eOWl92cvif" name="Page-3">
    <mxGraphModel dx="682" dy="357" grid="0" gridSize="10" guides="1" tooltips="1" connect="1" arrows="1" fold="1" page="1" pageScale="1" pageWidth="850" pageHeight="1100" math="1" shadow="0">
      <root>
        <mxCell id="0" />
        <mxCell id="1" parent="0" />
        <mxCell id="7so6dv7FvoUTk47lOrHW-2" value="" style="ellipse;whiteSpace=wrap;html=1;aspect=fixed;" vertex="1" parent="1">
          <mxGeometry x="234" y="265" width="6" height="6" as="geometry" />
        </mxCell>
        <mxCell id="7so6dv7FvoUTk47lOrHW-4" value="" style="endArrow=none;html=1;rounded=0;entryX=0;entryY=0.5;entryDx=0;entryDy=0;" edge="1" parent="1" target="7so6dv7FvoUTk47lOrHW-2">
          <mxGeometry width="50" height="50" relative="1" as="geometry">
            <mxPoint x="212" y="268" as="sourcePoint" />
            <mxPoint x="324" y="222" as="targetPoint" />
          </mxGeometry>
        </mxCell>
        <mxCell id="U60fdyYENvy4fu0GI9gZ-1" value="" style="shape=or;whiteSpace=wrap;html=1;" vertex="1" parent="1">
          <mxGeometry x="240" y="240" width="60" height="80" as="geometry" />
        </mxCell>
        <mxCell id="U60fdyYENvy4fu0GI9gZ-11" value="" style="endArrow=none;html=1;rounded=0;entryX=-0.01;entryY=0.375;entryDx=0;entryDy=0;entryPerimeter=0;" edge="1" parent="1">
          <mxGeometry width="50" height="50" relative="1" as="geometry">
            <mxPoint x="211" y="252" as="sourcePoint" />
            <mxPoint x="239.99999999999997" y="252" as="targetPoint" />
            <Array as="points">
              <mxPoint x="210.6" y="252" />
            </Array>
          </mxGeometry>
        </mxCell>
        <mxCell id="U60fdyYENvy4fu0GI9gZ-14" value="" style="ellipse;whiteSpace=wrap;html=1;aspect=fixed;" vertex="1" parent="1">
          <mxGeometry x="234" y="285" width="6" height="6" as="geometry" />
        </mxCell>
        <mxCell id="U60fdyYENvy4fu0GI9gZ-15" value="" style="endArrow=none;html=1;rounded=0;entryX=0;entryY=0.5;entryDx=0;entryDy=0;" edge="1" target="U60fdyYENvy4fu0GI9gZ-14" parent="1">
          <mxGeometry width="50" height="50" relative="1" as="geometry">
            <mxPoint x="212" y="288" as="sourcePoint" />
            <mxPoint x="324" y="242" as="targetPoint" />
          </mxGeometry>
        </mxCell>
        <mxCell id="U60fdyYENvy4fu0GI9gZ-16" value="" style="ellipse;whiteSpace=wrap;html=1;aspect=fixed;" vertex="1" parent="1">
          <mxGeometry x="234" y="304" width="6" height="6" as="geometry" />
        </mxCell>
        <mxCell id="U60fdyYENvy4fu0GI9gZ-17" value="" style="endArrow=none;html=1;rounded=0;entryX=0;entryY=0.5;entryDx=0;entryDy=0;" edge="1" target="U60fdyYENvy4fu0GI9gZ-16" parent="1">
          <mxGeometry width="50" height="50" relative="1" as="geometry">
            <mxPoint x="213" y="307" as="sourcePoint" />
            <mxPoint x="324" y="261" as="targetPoint" />
          </mxGeometry>
        </mxCell>
        <mxCell id="U60fdyYENvy4fu0GI9gZ-20" value="" style="shape=or;whiteSpace=wrap;html=1;" vertex="1" parent="1">
          <mxGeometry x="240" y="135" width="60" height="80" as="geometry" />
        </mxCell>
        <mxCell id="U60fdyYENvy4fu0GI9gZ-21" value="" style="endArrow=none;html=1;rounded=0;entryX=-0.01;entryY=0.375;entryDx=0;entryDy=0;entryPerimeter=0;" edge="1" parent="1">
          <mxGeometry width="50" height="50" relative="1" as="geometry">
            <mxPoint x="200" y="163" as="sourcePoint" />
            <mxPoint x="239.99999999999997" y="163" as="targetPoint" />
            <Array as="points">
              <mxPoint x="210.6" y="163" />
            </Array>
          </mxGeometry>
        </mxCell>
        <mxCell id="U60fdyYENvy4fu0GI9gZ-24" value="" style="ellipse;whiteSpace=wrap;html=1;aspect=fixed;" vertex="1" parent="1">
          <mxGeometry x="234" y="199" width="6" height="6" as="geometry" />
        </mxCell>
        <mxCell id="U60fdyYENvy4fu0GI9gZ-25" value="" style="endArrow=none;html=1;rounded=0;entryX=0;entryY=0.5;entryDx=0;entryDy=0;" edge="1" target="U60fdyYENvy4fu0GI9gZ-24" parent="1">
          <mxGeometry width="50" height="50" relative="1" as="geometry">
            <mxPoint x="96" y="202" as="sourcePoint" />
            <mxPoint x="324" y="156" as="targetPoint" />
          </mxGeometry>
        </mxCell>
        <mxCell id="U60fdyYENvy4fu0GI9gZ-26" value="" style="endArrow=none;html=1;rounded=0;entryX=-0.01;entryY=0.375;entryDx=0;entryDy=0;entryPerimeter=0;" edge="1" parent="1">
          <mxGeometry width="50" height="50" relative="1" as="geometry">
            <mxPoint x="96" y="181" as="sourcePoint" />
            <mxPoint x="239.99999999999997" y="181" as="targetPoint" />
            <Array as="points">
              <mxPoint x="210.6" y="181" />
            </Array>
          </mxGeometry>
        </mxCell>
        <mxCell id="U60fdyYENvy4fu0GI9gZ-27" value="" style="ellipse;whiteSpace=wrap;html=1;aspect=fixed;" vertex="1" parent="1">
          <mxGeometry x="234" y="144" width="6" height="6" as="geometry" />
        </mxCell>
        <mxCell id="U60fdyYENvy4fu0GI9gZ-28" value="" style="endArrow=none;html=1;rounded=0;entryX=0;entryY=0.5;entryDx=0;entryDy=0;exitX=2.557;exitY=0.507;exitDx=0;exitDy=0;exitPerimeter=0;" edge="1" target="U60fdyYENvy4fu0GI9gZ-27" parent="1" source="rmo10qNm0_NVtEvNkoRi-1">
          <mxGeometry width="50" height="50" relative="1" as="geometry">
            <mxPoint x="200" y="147" as="sourcePoint" />
            <mxPoint x="324" y="101" as="targetPoint" />
          </mxGeometry>
        </mxCell>
        <mxCell id="U60fdyYENvy4fu0GI9gZ-30" value="" style="endArrow=none;html=1;rounded=0;" edge="1" parent="1">
          <mxGeometry width="50" height="50" relative="1" as="geometry">
            <mxPoint x="96" y="163" as="sourcePoint" />
            <mxPoint x="201" y="163" as="targetPoint" />
          </mxGeometry>
        </mxCell>
        <mxCell id="U60fdyYENvy4fu0GI9gZ-31" value="" style="endArrow=none;html=1;rounded=0;" edge="1" parent="1" source="rmo10qNm0_NVtEvNkoRi-1">
          <mxGeometry width="50" height="50" relative="1" as="geometry">
            <mxPoint x="192" y="147" as="sourcePoint" />
            <mxPoint x="211" y="252" as="targetPoint" />
            <Array as="points">
              <mxPoint x="192" y="252" />
            </Array>
          </mxGeometry>
        </mxCell>
        <mxCell id="rmo10qNm0_NVtEvNkoRi-2" value="" style="endArrow=none;html=1;rounded=0;" edge="1" parent="1" target="rmo10qNm0_NVtEvNkoRi-1">
          <mxGeometry width="50" height="50" relative="1" as="geometry">
            <mxPoint x="96" y="147" as="sourcePoint" />
            <mxPoint x="200" y="147" as="targetPoint" />
          </mxGeometry>
        </mxCell>
        <mxCell id="rmo10qNm0_NVtEvNkoRi-3" value="" style="endArrow=none;html=1;rounded=0;" edge="1" parent="1" target="rmo10qNm0_NVtEvNkoRi-1">
          <mxGeometry width="50" height="50" relative="1" as="geometry">
            <mxPoint x="192" y="147" as="sourcePoint" />
            <mxPoint x="211" y="252" as="targetPoint" />
            <Array as="points" />
          </mxGeometry>
        </mxCell>
        <mxCell id="rmo10qNm0_NVtEvNkoRi-1" value="" style="shape=ellipse;html=1;dashed=0;whiteSpace=wrap;aspect=fixed;strokeWidth=5;perimeter=ellipsePerimeter;" vertex="1" parent="1">
          <mxGeometry x="191" y="146.5" width="1" height="1" as="geometry" />
        </mxCell>
        <mxCell id="rmo10qNm0_NVtEvNkoRi-4" value="" style="endArrow=none;html=1;rounded=0;" edge="1" source="rmo10qNm0_NVtEvNkoRi-6" parent="1">
          <mxGeometry width="50" height="50" relative="1" as="geometry">
            <mxPoint x="173" y="162.5" as="sourcePoint" />
            <mxPoint x="212" y="268" as="targetPoint" />
            <Array as="points">
              <mxPoint x="173" y="268" />
            </Array>
          </mxGeometry>
        </mxCell>
        <mxCell id="rmo10qNm0_NVtEvNkoRi-5" value="" style="endArrow=none;html=1;rounded=0;" edge="1" target="rmo10qNm0_NVtEvNkoRi-6" parent="1">
          <mxGeometry width="50" height="50" relative="1" as="geometry">
            <mxPoint x="173" y="162.5" as="sourcePoint" />
            <mxPoint x="192" y="267.5" as="targetPoint" />
            <Array as="points" />
          </mxGeometry>
        </mxCell>
        <mxCell id="rmo10qNm0_NVtEvNkoRi-6" value="" style="shape=ellipse;html=1;dashed=0;whiteSpace=wrap;aspect=fixed;strokeWidth=5;perimeter=ellipsePerimeter;" vertex="1" parent="1">
          <mxGeometry x="172" y="162" width="1" height="1" as="geometry" />
        </mxCell>
        <mxCell id="rmo10qNm0_NVtEvNkoRi-7" value="" style="endArrow=none;html=1;rounded=0;" edge="1" parent="1" source="rmo10qNm0_NVtEvNkoRi-9">
          <mxGeometry width="50" height="50" relative="1" as="geometry">
            <mxPoint x="152" y="181.5" as="sourcePoint" />
            <mxPoint x="212" y="288" as="targetPoint" />
            <Array as="points">
              <mxPoint x="152" y="288" />
            </Array>
          </mxGeometry>
        </mxCell>
        <mxCell id="rmo10qNm0_NVtEvNkoRi-8" value="" style="endArrow=none;html=1;rounded=0;" edge="1" parent="1" target="rmo10qNm0_NVtEvNkoRi-9">
          <mxGeometry width="50" height="50" relative="1" as="geometry">
            <mxPoint x="152" y="181.5" as="sourcePoint" />
            <mxPoint x="171" y="286.5" as="targetPoint" />
            <Array as="points" />
          </mxGeometry>
        </mxCell>
        <mxCell id="rmo10qNm0_NVtEvNkoRi-9" value="" style="shape=ellipse;html=1;dashed=0;whiteSpace=wrap;aspect=fixed;strokeWidth=5;perimeter=ellipsePerimeter;" vertex="1" parent="1">
          <mxGeometry x="151" y="181" width="1" height="1" as="geometry" />
        </mxCell>
        <mxCell id="rmo10qNm0_NVtEvNkoRi-10" value="" style="endArrow=none;html=1;rounded=0;" edge="1" parent="1" source="rmo10qNm0_NVtEvNkoRi-12">
          <mxGeometry width="50" height="50" relative="1" as="geometry">
            <mxPoint x="130" y="201.5" as="sourcePoint" />
            <mxPoint x="213" y="307" as="targetPoint" />
            <Array as="points">
              <mxPoint x="130" y="307" />
            </Array>
          </mxGeometry>
        </mxCell>
        <mxCell id="rmo10qNm0_NVtEvNkoRi-11" value="" style="endArrow=none;html=1;rounded=0;" edge="1" parent="1" target="rmo10qNm0_NVtEvNkoRi-12">
          <mxGeometry width="50" height="50" relative="1" as="geometry">
            <mxPoint x="130" y="201.5" as="sourcePoint" />
            <mxPoint x="149" y="306.5" as="targetPoint" />
            <Array as="points" />
          </mxGeometry>
        </mxCell>
        <mxCell id="rmo10qNm0_NVtEvNkoRi-12" value="" style="shape=ellipse;html=1;dashed=0;whiteSpace=wrap;aspect=fixed;strokeWidth=5;perimeter=ellipsePerimeter;" vertex="1" parent="1">
          <mxGeometry x="129" y="201" width="1" height="1" as="geometry" />
        </mxCell>
        <mxCell id="rmo10qNm0_NVtEvNkoRi-13" value="A" style="text;html=1;strokeColor=none;fillColor=none;align=center;verticalAlign=middle;whiteSpace=wrap;rounded=0;" vertex="1" parent="1">
          <mxGeometry x="56" y="132" width="60" height="30" as="geometry" />
        </mxCell>
        <mxCell id="rmo10qNm0_NVtEvNkoRi-14" value="B" style="text;html=1;strokeColor=none;fillColor=none;align=center;verticalAlign=middle;whiteSpace=wrap;rounded=0;" vertex="1" parent="1">
          <mxGeometry x="56" y="147.5" width="60" height="30" as="geometry" />
        </mxCell>
        <mxCell id="rmo10qNm0_NVtEvNkoRi-15" value="C" style="text;html=1;strokeColor=none;fillColor=none;align=center;verticalAlign=middle;whiteSpace=wrap;rounded=0;" vertex="1" parent="1">
          <mxGeometry x="56" y="166.5" width="60" height="30" as="geometry" />
        </mxCell>
        <mxCell id="rmo10qNm0_NVtEvNkoRi-16" value="D" style="text;html=1;strokeColor=none;fillColor=none;align=center;verticalAlign=middle;whiteSpace=wrap;rounded=0;" vertex="1" parent="1">
          <mxGeometry x="56" y="186.5" width="60" height="30" as="geometry" />
        </mxCell>
        <mxCell id="rmo10qNm0_NVtEvNkoRi-17" value="" style="endArrow=none;html=1;rounded=0;exitX=1;exitY=0.5;exitDx=0;exitDy=0;exitPerimeter=0;entryX=0.175;entryY=0.25;entryDx=0;entryDy=0;entryPerimeter=0;" edge="1" parent="1" source="U60fdyYENvy4fu0GI9gZ-20" target="rmo10qNm0_NVtEvNkoRi-19">
          <mxGeometry width="50" height="50" relative="1" as="geometry">
            <mxPoint x="351" y="238" as="sourcePoint" />
            <mxPoint x="401" y="188" as="targetPoint" />
            <Array as="points">
              <mxPoint x="349" y="175" />
              <mxPoint x="349" y="201" />
            </Array>
          </mxGeometry>
        </mxCell>
        <mxCell id="rmo10qNm0_NVtEvNkoRi-18" value="" style="endArrow=none;html=1;rounded=0;exitX=1;exitY=0.5;exitDx=0;exitDy=0;exitPerimeter=0;entryX=0.175;entryY=0.75;entryDx=0;entryDy=0;entryPerimeter=0;" edge="1" parent="1" source="U60fdyYENvy4fu0GI9gZ-1" target="rmo10qNm0_NVtEvNkoRi-19">
          <mxGeometry width="50" height="50" relative="1" as="geometry">
            <mxPoint x="351" y="218" as="sourcePoint" />
            <mxPoint x="390" y="224" as="targetPoint" />
            <Array as="points">
              <mxPoint x="348" y="280" />
              <mxPoint x="348" y="241" />
            </Array>
          </mxGeometry>
        </mxCell>
        <mxCell id="rmo10qNm0_NVtEvNkoRi-19" value="" style="shape=xor;whiteSpace=wrap;html=1;" vertex="1" parent="1">
          <mxGeometry x="388" y="181" width="60" height="80" as="geometry" />
        </mxCell>
        <mxCell id="rmo10qNm0_NVtEvNkoRi-20" value="" style="endArrow=none;html=1;rounded=0;" edge="1" parent="1">
          <mxGeometry width="50" height="50" relative="1" as="geometry">
            <mxPoint x="448" y="220.71" as="sourcePoint" />
            <mxPoint x="488" y="220.71" as="targetPoint" />
          </mxGeometry>
        </mxCell>
        <mxCell id="rmo10qNm0_NVtEvNkoRi-21" value="Y" style="text;html=1;strokeColor=none;fillColor=none;align=center;verticalAlign=middle;whiteSpace=wrap;rounded=0;" vertex="1" parent="1">
          <mxGeometry x="466" y="206" width="60" height="30" as="geometry" />
        </mxCell>
      </root>
    </mxGraphModel>
  </diagram>
  <diagram id="dJ9TI5MVA58YHN4Fxp3Q" name="Page-4">
    <mxGraphModel dx="569" dy="297" grid="0" gridSize="10" guides="1" tooltips="1" connect="1" arrows="1" fold="1" page="1" pageScale="1" pageWidth="850" pageHeight="1100" math="1" shadow="0">
      <root>
        <mxCell id="0" />
        <mxCell id="1" parent="0" />
        <mxCell id="pr0oz8o2XXo8BnCvHwQJ-1" value="" style="verticalLabelPosition=bottom;shadow=0;dashed=0;align=center;html=1;verticalAlign=top;shape=mxgraph.electrical.logic_gates.logic_gate;operation=and;negating=1;negSize=0.15;" vertex="1" parent="1">
          <mxGeometry x="154" y="157" width="100" height="60" as="geometry" />
        </mxCell>
        <mxCell id="pr0oz8o2XXo8BnCvHwQJ-3" value="" style="verticalLabelPosition=bottom;shadow=0;dashed=0;align=center;html=1;verticalAlign=top;shape=mxgraph.electrical.logic_gates.logic_gate;operation=and;negating=1;negSize=0.15;" vertex="1" parent="1">
          <mxGeometry x="308" y="217" width="100" height="60" as="geometry" />
        </mxCell>
        <mxCell id="pr0oz8o2XXo8BnCvHwQJ-4" value="" style="endArrow=none;html=1;rounded=0;" edge="1" parent="1">
          <mxGeometry width="50" height="50" relative="1" as="geometry">
            <mxPoint x="144" y="172" as="sourcePoint" />
            <mxPoint x="154" y="172" as="targetPoint" />
          </mxGeometry>
        </mxCell>
        <mxCell id="pr0oz8o2XXo8BnCvHwQJ-5" value="" style="endArrow=none;html=1;rounded=0;exitX=0;exitY=0.75;exitDx=0;exitDy=0;exitPerimeter=0;" edge="1" parent="1" source="FVfTXLA6GBAgZxVlAqv_-1">
          <mxGeometry width="50" height="50" relative="1" as="geometry">
            <mxPoint x="185" y="219" as="sourcePoint" />
            <mxPoint x="144" y="172" as="targetPoint" />
            <Array as="points" />
          </mxGeometry>
        </mxCell>
        <mxCell id="FVfTXLA6GBAgZxVlAqv_-2" value="" style="endArrow=none;html=1;rounded=0;" edge="1" parent="1">
          <mxGeometry width="50" height="50" relative="1" as="geometry">
            <mxPoint x="86" y="172" as="sourcePoint" />
            <mxPoint x="143" y="172" as="targetPoint" />
          </mxGeometry>
        </mxCell>
        <mxCell id="FVfTXLA6GBAgZxVlAqv_-3" value="" style="endArrow=none;html=1;rounded=0;exitX=0;exitY=0.75;exitDx=0;exitDy=0;exitPerimeter=0;" edge="1" parent="1" source="pr0oz8o2XXo8BnCvHwQJ-1" target="FVfTXLA6GBAgZxVlAqv_-1">
          <mxGeometry width="50" height="50" relative="1" as="geometry">
            <mxPoint x="154" y="202" as="sourcePoint" />
            <mxPoint x="144" y="172" as="targetPoint" />
            <Array as="points">
              <mxPoint x="144" y="202" />
            </Array>
          </mxGeometry>
        </mxCell>
        <mxCell id="FVfTXLA6GBAgZxVlAqv_-1" value="" style="shape=ellipse;html=1;dashed=0;whiteSpace=wrap;aspect=fixed;strokeWidth=5;perimeter=ellipsePerimeter;" vertex="1" parent="1">
          <mxGeometry x="143" y="171" width="1" height="1" as="geometry" />
        </mxCell>
        <mxCell id="FVfTXLA6GBAgZxVlAqv_-5" value="" style="endArrow=none;html=1;rounded=0;exitX=0;exitY=0.75;exitDx=0;exitDy=0;exitPerimeter=0;" edge="1" parent="1" source="FVfTXLA6GBAgZxVlAqv_-7">
          <mxGeometry width="50" height="50" relative="1" as="geometry">
            <mxPoint x="159" y="219.5" as="sourcePoint" />
            <mxPoint x="118" y="172.5" as="targetPoint" />
            <Array as="points" />
          </mxGeometry>
        </mxCell>
        <mxCell id="FVfTXLA6GBAgZxVlAqv_-6" value="" style="endArrow=none;html=1;rounded=0;exitX=0;exitY=0.25;exitDx=0;exitDy=0;exitPerimeter=0;" edge="1" parent="1" target="FVfTXLA6GBAgZxVlAqv_-7" source="pr0oz8o2XXo8BnCvHwQJ-3">
          <mxGeometry width="50" height="50" relative="1" as="geometry">
            <mxPoint x="311" y="241" as="sourcePoint" />
            <mxPoint x="118" y="172.5" as="targetPoint" />
            <Array as="points">
              <mxPoint x="118" y="231" />
            </Array>
          </mxGeometry>
        </mxCell>
        <mxCell id="FVfTXLA6GBAgZxVlAqv_-7" value="" style="shape=ellipse;html=1;dashed=0;whiteSpace=wrap;aspect=fixed;strokeWidth=5;perimeter=ellipsePerimeter;" vertex="1" parent="1">
          <mxGeometry x="117" y="171.5" width="1" height="1" as="geometry" />
        </mxCell>
        <mxCell id="FVfTXLA6GBAgZxVlAqv_-8" value="" style="verticalLabelPosition=bottom;shadow=0;dashed=0;align=center;html=1;verticalAlign=top;shape=mxgraph.electrical.logic_gates.logic_gate;operation=and;negating=1;negSize=0.15;" vertex="1" parent="1">
          <mxGeometry x="154" y="261" width="100" height="60" as="geometry" />
        </mxCell>
        <mxCell id="FVfTXLA6GBAgZxVlAqv_-9" value="" style="endArrow=none;html=1;rounded=0;" edge="1" parent="1">
          <mxGeometry width="50" height="50" relative="1" as="geometry">
            <mxPoint x="144" y="276" as="sourcePoint" />
            <mxPoint x="154" y="276" as="targetPoint" />
          </mxGeometry>
        </mxCell>
        <mxCell id="FVfTXLA6GBAgZxVlAqv_-10" value="" style="endArrow=none;html=1;rounded=0;exitX=0;exitY=0.75;exitDx=0;exitDy=0;exitPerimeter=0;" edge="1" source="FVfTXLA6GBAgZxVlAqv_-13" parent="1">
          <mxGeometry width="50" height="50" relative="1" as="geometry">
            <mxPoint x="185" y="323" as="sourcePoint" />
            <mxPoint x="144" y="276" as="targetPoint" />
            <Array as="points" />
          </mxGeometry>
        </mxCell>
        <mxCell id="FVfTXLA6GBAgZxVlAqv_-11" value="" style="endArrow=none;html=1;rounded=0;" edge="1" parent="1">
          <mxGeometry width="50" height="50" relative="1" as="geometry">
            <mxPoint x="86" y="276" as="sourcePoint" />
            <mxPoint x="143" y="276" as="targetPoint" />
          </mxGeometry>
        </mxCell>
        <mxCell id="FVfTXLA6GBAgZxVlAqv_-12" value="" style="endArrow=none;html=1;rounded=0;exitX=0;exitY=0.75;exitDx=0;exitDy=0;exitPerimeter=0;" edge="1" source="FVfTXLA6GBAgZxVlAqv_-8" target="FVfTXLA6GBAgZxVlAqv_-13" parent="1">
          <mxGeometry width="50" height="50" relative="1" as="geometry">
            <mxPoint x="154" y="306" as="sourcePoint" />
            <mxPoint x="144" y="276" as="targetPoint" />
            <Array as="points">
              <mxPoint x="144" y="306" />
            </Array>
          </mxGeometry>
        </mxCell>
        <mxCell id="FVfTXLA6GBAgZxVlAqv_-13" value="" style="shape=ellipse;html=1;dashed=0;whiteSpace=wrap;aspect=fixed;strokeWidth=5;perimeter=ellipsePerimeter;" vertex="1" parent="1">
          <mxGeometry x="143" y="275" width="1" height="1" as="geometry" />
        </mxCell>
        <mxCell id="FVfTXLA6GBAgZxVlAqv_-14" value="" style="endArrow=none;html=1;rounded=0;exitX=0;exitY=0.75;exitDx=0;exitDy=0;exitPerimeter=0;" edge="1" source="FVfTXLA6GBAgZxVlAqv_-16" parent="1">
          <mxGeometry width="50" height="50" relative="1" as="geometry">
            <mxPoint x="159" y="323.5" as="sourcePoint" />
            <mxPoint x="118" y="276.5" as="targetPoint" />
            <Array as="points" />
          </mxGeometry>
        </mxCell>
        <mxCell id="FVfTXLA6GBAgZxVlAqv_-15" value="" style="endArrow=none;html=1;rounded=0;" edge="1" target="FVfTXLA6GBAgZxVlAqv_-16" parent="1">
          <mxGeometry width="50" height="50" relative="1" as="geometry">
            <mxPoint x="311" y="345" as="sourcePoint" />
            <mxPoint x="118" y="276.5" as="targetPoint" />
            <Array as="points">
              <mxPoint x="118" y="345" />
            </Array>
          </mxGeometry>
        </mxCell>
        <mxCell id="FVfTXLA6GBAgZxVlAqv_-16" value="" style="shape=ellipse;html=1;dashed=0;whiteSpace=wrap;aspect=fixed;strokeWidth=5;perimeter=ellipsePerimeter;" vertex="1" parent="1">
          <mxGeometry x="117" y="275.5" width="1" height="1" as="geometry" />
        </mxCell>
        <mxCell id="FVfTXLA6GBAgZxVlAqv_-17" value="" style="endArrow=none;html=1;rounded=0;exitX=1;exitY=0.5;exitDx=0;exitDy=0;exitPerimeter=0;entryX=0;entryY=0.75;entryDx=0;entryDy=0;entryPerimeter=0;" edge="1" parent="1" source="FVfTXLA6GBAgZxVlAqv_-8" target="pr0oz8o2XXo8BnCvHwQJ-3">
          <mxGeometry width="50" height="50" relative="1" as="geometry">
            <mxPoint x="262" y="258" as="sourcePoint" />
            <mxPoint x="312" y="208" as="targetPoint" />
            <Array as="points">
              <mxPoint x="273" y="291" />
              <mxPoint x="273" y="262" />
            </Array>
          </mxGeometry>
        </mxCell>
        <mxCell id="FVfTXLA6GBAgZxVlAqv_-18" value="" style="verticalLabelPosition=bottom;shadow=0;dashed=0;align=center;html=1;verticalAlign=top;shape=mxgraph.electrical.logic_gates.logic_gate;operation=and;negating=1;negSize=0.15;" vertex="1" parent="1">
          <mxGeometry x="308" y="300" width="100" height="60" as="geometry" />
        </mxCell>
        <mxCell id="FVfTXLA6GBAgZxVlAqv_-19" value="" style="endArrow=none;html=1;rounded=0;entryX=0;entryY=0.25;entryDx=0;entryDy=0;entryPerimeter=0;" edge="1" parent="1" target="FVfTXLA6GBAgZxVlAqv_-18">
          <mxGeometry width="50" height="50" relative="1" as="geometry">
            <mxPoint x="254" y="187" as="sourcePoint" />
            <mxPoint x="304" y="137" as="targetPoint" />
            <Array as="points">
              <mxPoint x="291" y="187" />
              <mxPoint x="292" y="315" />
            </Array>
          </mxGeometry>
        </mxCell>
        <mxCell id="FVfTXLA6GBAgZxVlAqv_-20" value="" style="verticalLabelPosition=bottom;shadow=0;dashed=0;align=center;html=1;verticalAlign=top;shape=mxgraph.electrical.logic_gates.logic_gate;operation=and;negating=1;negSize=0.15;" vertex="1" parent="1">
          <mxGeometry x="444" y="261" width="100" height="60" as="geometry" />
        </mxCell>
        <mxCell id="FVfTXLA6GBAgZxVlAqv_-21" value="" style="endArrow=none;html=1;rounded=0;exitX=1;exitY=0.5;exitDx=0;exitDy=0;exitPerimeter=0;entryX=0;entryY=0.25;entryDx=0;entryDy=0;entryPerimeter=0;" edge="1" parent="1" source="pr0oz8o2XXo8BnCvHwQJ-3" target="FVfTXLA6GBAgZxVlAqv_-20">
          <mxGeometry width="50" height="50" relative="1" as="geometry">
            <mxPoint x="429" y="323" as="sourcePoint" />
            <mxPoint x="479" y="273" as="targetPoint" />
            <Array as="points">
              <mxPoint x="425" y="247" />
              <mxPoint x="425" y="276" />
            </Array>
          </mxGeometry>
        </mxCell>
        <mxCell id="FVfTXLA6GBAgZxVlAqv_-22" value="" style="endArrow=none;html=1;rounded=0;exitX=1;exitY=0.5;exitDx=0;exitDy=0;exitPerimeter=0;entryX=0;entryY=0.75;entryDx=0;entryDy=0;entryPerimeter=0;" edge="1" parent="1" source="FVfTXLA6GBAgZxVlAqv_-18" target="FVfTXLA6GBAgZxVlAqv_-20">
          <mxGeometry width="50" height="50" relative="1" as="geometry">
            <mxPoint x="410" y="337" as="sourcePoint" />
            <mxPoint x="460" y="287" as="targetPoint" />
            <Array as="points">
              <mxPoint x="425" y="330" />
              <mxPoint x="425" y="306" />
            </Array>
          </mxGeometry>
        </mxCell>
        <mxCell id="FVfTXLA6GBAgZxVlAqv_-23" value="a" style="text;html=1;strokeColor=none;fillColor=none;align=center;verticalAlign=middle;whiteSpace=wrap;rounded=0;" vertex="1" parent="1">
          <mxGeometry x="45" y="156.5" width="60" height="30" as="geometry" />
        </mxCell>
        <mxCell id="FVfTXLA6GBAgZxVlAqv_-24" value="b" style="text;html=1;strokeColor=none;fillColor=none;align=center;verticalAlign=middle;whiteSpace=wrap;rounded=0;" vertex="1" parent="1">
          <mxGeometry x="45" y="260.5" width="60" height="30" as="geometry" />
        </mxCell>
        <mxCell id="FVfTXLA6GBAgZxVlAqv_-25" value="a XOR b" style="text;html=1;strokeColor=none;fillColor=none;align=center;verticalAlign=middle;whiteSpace=wrap;rounded=0;" vertex="1" parent="1">
          <mxGeometry x="544" y="275" width="60" height="30" as="geometry" />
        </mxCell>
      </root>
    </mxGraphModel>
  </diagram>
  <diagram id="hQXC5SfVZ4jWkr3JFNLv" name="Page-5">
    <mxGraphModel dx="932" dy="430" grid="0" gridSize="10" guides="1" tooltips="1" connect="1" arrows="1" fold="1" page="0" pageScale="1" pageWidth="850" pageHeight="1100" math="1" shadow="0">
      <root>
        <mxCell id="0" />
        <mxCell id="1" parent="0" />
        <mxCell id="jfQremtDUe0uA4jECDeZ-2" value="&lt;font style=&quot;font-size: 20px;&quot;&gt;0&lt;/font&gt;" style="ellipse;whiteSpace=wrap;html=1;aspect=fixed;" vertex="1" parent="1">
          <mxGeometry x="40" y="200" width="80" height="80" as="geometry" />
        </mxCell>
        <mxCell id="jfQremtDUe0uA4jECDeZ-19" value="" style="endArrow=classic;html=1;rounded=0;" edge="1" parent="1">
          <mxGeometry relative="1" as="geometry">
            <mxPoint x="120" y="239.57999999999998" as="sourcePoint" />
            <mxPoint x="200" y="240" as="targetPoint" />
          </mxGeometry>
        </mxCell>
        <mxCell id="jfQremtDUe0uA4jECDeZ-20" value="&lt;font style=&quot;font-size: 15px;&quot;&gt;m&lt;/font&gt;" style="edgeLabel;resizable=0;html=1;align=center;verticalAlign=middle;" connectable="0" vertex="1" parent="jfQremtDUe0uA4jECDeZ-19">
          <mxGeometry relative="1" as="geometry" />
        </mxCell>
        <mxCell id="jfQremtDUe0uA4jECDeZ-24" value="" style="endArrow=classic;html=1;rounded=0;" edge="1" parent="1">
          <mxGeometry relative="1" as="geometry">
            <mxPoint x="280" y="239.57999999999998" as="sourcePoint" />
            <mxPoint x="360" y="240" as="targetPoint" />
          </mxGeometry>
        </mxCell>
        <mxCell id="jfQremtDUe0uA4jECDeZ-25" value="&lt;font style=&quot;font-size: 15px;&quot;&gt;a&lt;/font&gt;" style="edgeLabel;resizable=0;html=1;align=center;verticalAlign=middle;" connectable="0" vertex="1" parent="jfQremtDUe0uA4jECDeZ-24">
          <mxGeometry relative="1" as="geometry" />
        </mxCell>
        <mxCell id="jfQremtDUe0uA4jECDeZ-26" value="" style="endArrow=classic;html=1;rounded=0;" edge="1" parent="1">
          <mxGeometry relative="1" as="geometry">
            <mxPoint x="440" y="239.57999999999998" as="sourcePoint" />
            <mxPoint x="520" y="240" as="targetPoint" />
          </mxGeometry>
        </mxCell>
        <mxCell id="jfQremtDUe0uA4jECDeZ-27" value="&lt;font style=&quot;font-size: 15px;&quot;&gt;d&lt;/font&gt;" style="edgeLabel;resizable=0;html=1;align=center;verticalAlign=middle;" connectable="0" vertex="1" parent="jfQremtDUe0uA4jECDeZ-26">
          <mxGeometry relative="1" as="geometry" />
        </mxCell>
        <mxCell id="jfQremtDUe0uA4jECDeZ-28" value="" style="endArrow=classic;html=1;rounded=0;" edge="1" parent="1">
          <mxGeometry relative="1" as="geometry">
            <mxPoint x="600" y="239.57999999999998" as="sourcePoint" />
            <mxPoint x="680" y="240" as="targetPoint" />
          </mxGeometry>
        </mxCell>
        <mxCell id="jfQremtDUe0uA4jECDeZ-29" value="&lt;font style=&quot;font-size: 15px;&quot;&gt;a&lt;/font&gt;" style="edgeLabel;resizable=0;html=1;align=center;verticalAlign=middle;" connectable="0" vertex="1" parent="jfQremtDUe0uA4jECDeZ-28">
          <mxGeometry relative="1" as="geometry" />
        </mxCell>
        <mxCell id="jfQremtDUe0uA4jECDeZ-30" value="" style="endArrow=classic;html=1;rounded=0;" edge="1" parent="1">
          <mxGeometry relative="1" as="geometry">
            <mxPoint x="760" y="239.57999999999998" as="sourcePoint" />
            <mxPoint x="840" y="240" as="targetPoint" />
          </mxGeometry>
        </mxCell>
        <mxCell id="jfQremtDUe0uA4jECDeZ-31" value="&lt;font style=&quot;font-size: 15px;&quot;&gt;m&lt;/font&gt;" style="edgeLabel;resizable=0;html=1;align=center;verticalAlign=middle;" connectable="0" vertex="1" parent="jfQremtDUe0uA4jECDeZ-30">
          <mxGeometry relative="1" as="geometry" />
        </mxCell>
        <mxCell id="jfQremtDUe0uA4jECDeZ-32" value="&lt;font style=&quot;font-size: 20px;&quot;&gt;0&lt;/font&gt;" style="ellipse;whiteSpace=wrap;html=1;aspect=fixed;" vertex="1" parent="1">
          <mxGeometry x="200" y="200" width="80" height="80" as="geometry" />
        </mxCell>
        <mxCell id="jfQremtDUe0uA4jECDeZ-33" value="&lt;font style=&quot;font-size: 20px;&quot;&gt;0&lt;/font&gt;" style="ellipse;whiteSpace=wrap;html=1;aspect=fixed;" vertex="1" parent="1">
          <mxGeometry x="360" y="200" width="80" height="80" as="geometry" />
        </mxCell>
        <mxCell id="jfQremtDUe0uA4jECDeZ-34" value="&lt;font style=&quot;font-size: 20px;&quot;&gt;0&lt;/font&gt;" style="ellipse;whiteSpace=wrap;html=1;aspect=fixed;" vertex="1" parent="1">
          <mxGeometry x="520" y="200" width="80" height="80" as="geometry" />
        </mxCell>
        <mxCell id="jfQremtDUe0uA4jECDeZ-35" value="&lt;font style=&quot;font-size: 20px;&quot;&gt;0&lt;/font&gt;" style="ellipse;whiteSpace=wrap;html=1;aspect=fixed;" vertex="1" parent="1">
          <mxGeometry x="680" y="200" width="80" height="80" as="geometry" />
        </mxCell>
        <mxCell id="jfQremtDUe0uA4jECDeZ-36" value="&lt;font style=&quot;font-size: 20px;&quot;&gt;1&lt;/font&gt;" style="ellipse;whiteSpace=wrap;html=1;aspect=fixed;" vertex="1" parent="1">
          <mxGeometry x="840" y="200" width="80" height="80" as="geometry" />
        </mxCell>
        <mxCell id="jfQremtDUe0uA4jECDeZ-38" value="&lt;font style=&quot;font-size: 15px;&quot;&gt;Init&lt;/font&gt;" style="text;html=1;strokeColor=none;fillColor=none;align=center;verticalAlign=middle;whiteSpace=wrap;rounded=0;" vertex="1" parent="1">
          <mxGeometry x="50" y="200" width="60" height="30" as="geometry" />
        </mxCell>
        <mxCell id="jfQremtDUe0uA4jECDeZ-40" value="" style="curved=1;endArrow=classic;html=1;rounded=0;exitX=1;exitY=0.5;exitDx=0;exitDy=0;entryX=0;entryY=0.5;entryDx=0;entryDy=0;" edge="1" parent="1" source="jfQremtDUe0uA4jECDeZ-38" target="jfQremtDUe0uA4jECDeZ-38">
          <mxGeometry width="50" height="50" relative="1" as="geometry">
            <mxPoint x="120" y="180" as="sourcePoint" />
            <mxPoint x="70" y="130" as="targetPoint" />
            <Array as="points">
              <mxPoint x="130" y="190" />
              <mxPoint x="80" y="150" />
              <mxPoint x="30" y="190" />
            </Array>
          </mxGeometry>
        </mxCell>
        <mxCell id="jfQremtDUe0uA4jECDeZ-41" value="&lt;font style=&quot;font-size: 15px;&quot;&gt;Other&lt;/font&gt;" style="edgeLabel;html=1;align=center;verticalAlign=middle;resizable=0;points=[];" vertex="1" connectable="0" parent="jfQremtDUe0uA4jECDeZ-40">
          <mxGeometry x="0.0668" y="7" relative="1" as="geometry">
            <mxPoint as="offset" />
          </mxGeometry>
        </mxCell>
        <mxCell id="jfQremtDUe0uA4jECDeZ-46" value="" style="curved=1;endArrow=classic;html=1;rounded=0;exitX=0.5;exitY=1;exitDx=0;exitDy=0;entryX=0.5;entryY=1;entryDx=0;entryDy=0;" edge="1" parent="1" source="jfQremtDUe0uA4jECDeZ-32" target="jfQremtDUe0uA4jECDeZ-2">
          <mxGeometry width="50" height="50" relative="1" as="geometry">
            <mxPoint x="160" y="310" as="sourcePoint" />
            <mxPoint x="210" y="260" as="targetPoint" />
            <Array as="points">
              <mxPoint x="200" y="300" />
              <mxPoint x="120" y="300" />
            </Array>
          </mxGeometry>
        </mxCell>
        <mxCell id="jfQremtDUe0uA4jECDeZ-52" value="&lt;font style=&quot;font-size: 15px;&quot;&gt;Other&lt;/font&gt;" style="edgeLabel;html=1;align=center;verticalAlign=middle;resizable=0;points=[];" vertex="1" connectable="0" parent="jfQremtDUe0uA4jECDeZ-46">
          <mxGeometry x="-0.0039" relative="1" as="geometry">
            <mxPoint as="offset" />
          </mxGeometry>
        </mxCell>
        <mxCell id="jfQremtDUe0uA4jECDeZ-47" value="" style="curved=1;endArrow=classic;html=1;rounded=0;exitX=0.5;exitY=1;exitDx=0;exitDy=0;entryX=0.5;entryY=1;entryDx=0;entryDy=0;" edge="1" parent="1" source="jfQremtDUe0uA4jECDeZ-33" target="jfQremtDUe0uA4jECDeZ-2">
          <mxGeometry width="50" height="50" relative="1" as="geometry">
            <mxPoint x="220" y="310" as="sourcePoint" />
            <mxPoint x="270" y="260" as="targetPoint" />
            <Array as="points">
              <mxPoint x="320" y="320" />
              <mxPoint x="160" y="320" />
            </Array>
          </mxGeometry>
        </mxCell>
        <mxCell id="jfQremtDUe0uA4jECDeZ-53" value="&lt;font style=&quot;font-size: 15px;&quot;&gt;Other&lt;/font&gt;" style="edgeLabel;html=1;align=center;verticalAlign=middle;resizable=0;points=[];" vertex="1" connectable="0" parent="jfQremtDUe0uA4jECDeZ-47">
          <mxGeometry x="-0.0059" relative="1" as="geometry">
            <mxPoint as="offset" />
          </mxGeometry>
        </mxCell>
        <mxCell id="jfQremtDUe0uA4jECDeZ-48" value="" style="curved=1;endArrow=classic;html=1;rounded=0;entryX=0.5;entryY=1;entryDx=0;entryDy=0;exitX=0.5;exitY=1;exitDx=0;exitDy=0;" edge="1" parent="1" source="jfQremtDUe0uA4jECDeZ-34" target="jfQremtDUe0uA4jECDeZ-2">
          <mxGeometry width="50" height="50" relative="1" as="geometry">
            <mxPoint x="350" y="400" as="sourcePoint" />
            <mxPoint x="400" y="350" as="targetPoint" />
            <Array as="points">
              <mxPoint x="440" y="360" />
              <mxPoint x="200" y="360" />
            </Array>
          </mxGeometry>
        </mxCell>
        <mxCell id="jfQremtDUe0uA4jECDeZ-54" value="&lt;font style=&quot;font-size: 15px;&quot;&gt;Other&lt;/font&gt;" style="edgeLabel;html=1;align=center;verticalAlign=middle;resizable=0;points=[];" vertex="1" connectable="0" parent="jfQremtDUe0uA4jECDeZ-48">
          <mxGeometry x="-0.0065" relative="1" as="geometry">
            <mxPoint as="offset" />
          </mxGeometry>
        </mxCell>
        <mxCell id="jfQremtDUe0uA4jECDeZ-49" value="" style="curved=1;endArrow=classic;html=1;rounded=0;exitX=0.5;exitY=1;exitDx=0;exitDy=0;entryX=0.5;entryY=1;entryDx=0;entryDy=0;" edge="1" parent="1" source="jfQremtDUe0uA4jECDeZ-35" target="jfQremtDUe0uA4jECDeZ-2">
          <mxGeometry width="50" height="50" relative="1" as="geometry">
            <mxPoint x="370" y="330" as="sourcePoint" />
            <mxPoint x="420" y="280" as="targetPoint" />
            <Array as="points">
              <mxPoint x="560" y="400" />
              <mxPoint x="240" y="400" />
            </Array>
          </mxGeometry>
        </mxCell>
        <mxCell id="jfQremtDUe0uA4jECDeZ-55" value="&lt;font style=&quot;font-size: 15px;&quot;&gt;Other&lt;/font&gt;" style="edgeLabel;html=1;align=center;verticalAlign=middle;resizable=0;points=[];" vertex="1" connectable="0" parent="jfQremtDUe0uA4jECDeZ-49">
          <mxGeometry x="-0.0048" relative="1" as="geometry">
            <mxPoint as="offset" />
          </mxGeometry>
        </mxCell>
        <mxCell id="jfQremtDUe0uA4jECDeZ-51" value="" style="curved=1;endArrow=classic;html=1;rounded=0;exitX=0.5;exitY=0;exitDx=0;exitDy=0;entryX=0.5;entryY=0;entryDx=0;entryDy=0;" edge="1" parent="1" source="jfQremtDUe0uA4jECDeZ-36" target="jfQremtDUe0uA4jECDeZ-32">
          <mxGeometry width="50" height="50" relative="1" as="geometry">
            <mxPoint x="880" y="280" as="sourcePoint" />
            <mxPoint x="240" y="280" as="targetPoint" />
            <Array as="points">
              <mxPoint x="720" y="80" />
              <mxPoint x="400" y="80" />
            </Array>
          </mxGeometry>
        </mxCell>
        <mxCell id="jfQremtDUe0uA4jECDeZ-56" value="" style="curved=1;endArrow=classic;html=1;rounded=0;exitX=0.5;exitY=0;exitDx=0;exitDy=0;entryX=0.5;entryY=0;entryDx=0;entryDy=0;" edge="1" parent="1" source="jfQremtDUe0uA4jECDeZ-33" target="jfQremtDUe0uA4jECDeZ-32">
          <mxGeometry width="50" height="50" relative="1" as="geometry">
            <mxPoint x="280" y="260" as="sourcePoint" />
            <mxPoint x="330" y="210" as="targetPoint" />
            <Array as="points">
              <mxPoint x="360" y="180" />
              <mxPoint x="280" y="180" />
            </Array>
          </mxGeometry>
        </mxCell>
        <mxCell id="jfQremtDUe0uA4jECDeZ-58" value="&lt;font style=&quot;font-size: 15px;&quot;&gt;m&lt;/font&gt;" style="edgeLabel;html=1;align=center;verticalAlign=middle;resizable=0;points=[];" vertex="1" connectable="0" parent="jfQremtDUe0uA4jECDeZ-56">
          <mxGeometry x="0.0022" relative="1" as="geometry">
            <mxPoint as="offset" />
          </mxGeometry>
        </mxCell>
        <mxCell id="jfQremtDUe0uA4jECDeZ-57" value="" style="curved=1;endArrow=classic;html=1;rounded=0;exitX=0.5;exitY=0;exitDx=0;exitDy=0;entryX=0.5;entryY=0;entryDx=0;entryDy=0;" edge="1" parent="1" source="jfQremtDUe0uA4jECDeZ-34" target="jfQremtDUe0uA4jECDeZ-32">
          <mxGeometry width="50" height="50" relative="1" as="geometry">
            <mxPoint x="500" y="260" as="sourcePoint" />
            <mxPoint x="550" y="210" as="targetPoint" />
            <Array as="points">
              <mxPoint x="480" y="160" />
              <mxPoint x="320" y="160" />
            </Array>
          </mxGeometry>
        </mxCell>
        <mxCell id="jfQremtDUe0uA4jECDeZ-59" value="&lt;font style=&quot;font-size: 15px;&quot;&gt;m&lt;/font&gt;" style="edgeLabel;html=1;align=center;verticalAlign=middle;resizable=0;points=[];" vertex="1" connectable="0" parent="jfQremtDUe0uA4jECDeZ-57">
          <mxGeometry x="-0.0017" relative="1" as="geometry">
            <mxPoint as="offset" />
          </mxGeometry>
        </mxCell>
        <mxCell id="jfQremtDUe0uA4jECDeZ-61" value="" style="curved=1;endArrow=classic;html=1;rounded=0;exitX=0.5;exitY=0;exitDx=0;exitDy=0;entryX=0.5;entryY=0;entryDx=0;entryDy=0;" edge="1" parent="1" source="jfQremtDUe0uA4jECDeZ-35" target="jfQremtDUe0uA4jECDeZ-32">
          <mxGeometry width="50" height="50" relative="1" as="geometry">
            <mxPoint x="490" y="280" as="sourcePoint" />
            <mxPoint x="540" y="230" as="targetPoint" />
            <Array as="points">
              <mxPoint x="600" y="120" />
              <mxPoint x="360" y="120" />
            </Array>
          </mxGeometry>
        </mxCell>
        <mxCell id="jfQremtDUe0uA4jECDeZ-62" value="&lt;font style=&quot;font-size: 15px;&quot;&gt;m&lt;/font&gt;" style="edgeLabel;html=1;align=center;verticalAlign=middle;resizable=0;points=[];" vertex="1" connectable="0" parent="jfQremtDUe0uA4jECDeZ-61">
          <mxGeometry y="-1" relative="1" as="geometry">
            <mxPoint as="offset" />
          </mxGeometry>
        </mxCell>
      </root>
    </mxGraphModel>
  </diagram>
</mxfile>
